<?xml version="1.0" encoding="UTF-8"?>
<svg xmlns="http://www.w3.org/2000/svg" width="1100" height="520" viewBox="0 0 1100 520" role="img" aria-labelledby="title desc">
  <title id="title">Joel Peckham — I make software that helps people.</title>
  <desc id="desc">Bauhaus-style profile banner. Text is outlined glyph paths (Jost Black, JetBrains Mono) — no runtime fonts required.</desc>

  <!-- paper ground + heavy ink rule -->
  <rect width="1100" height="520" fill="#f1ebdd"/>
  <rect y="517" width="1100" height="3" fill="#141210"/>

  <!-- decorative shapes (homepage hero) -->
  <circle cx="1020" cy="-20" r="160" fill="#1f45d8"/>
  <path d="M780 520 A110 110 0 0 1 1000 520 Z" fill="#f7c000" stroke="#141210" stroke-width="3"/>
  <polygon points="720,210 768,294 672,294" fill="#e1352a" transform="rotate(18 720 252)"/>

  <!-- outlined type -->
  <path fill="#6b6560" d="M59.51 78.13Q58.12 78.13 57.33 77.36Q56.53 76.58 56.53 75.24L57.82 75.24Q57.82 76.08 58.27 76.53Q58.72 76.99 59.51 76.99Q60.30 76.99 60.75 76.53Q61.20 76.08 61.20 75.26L61.20 68.51L62.49 68.51L62.49 75.26Q62.49 76.58 61.69 77.36Q60.89 78.13 59.51 78.13M70.04 78.13Q68.74 78.13 67.99 77.38Q67.23 76.62 67.23 75.24L67.23 71.25Q67.23 69.89 67.99 69.13Q68.74 68.38 70.04 68.38Q71.34 68.38 72.09 69.13Q72.85 69.88 72.85 71.25L72.85 75.24Q72.85 76.62 72.09 77.38Q71.34 78.13 70.04 78.13M70.04 76.99Q70.77 76.99 71.16 76.57Q71.56 76.15 71.56 75.37L71.56 71.12Q71.56 70.36 71.17 69.94Q70.78 69.52 70.04 69.52Q69.30 69.52 68.91 69.94Q68.52 70.36 68.52 71.12L68.52 75.37Q68.52 76.15 68.92 76.57Q69.31 76.99 70.04 76.99M83.07 78L77.54 78L77.54 68.51L83.07 68.51L83.07 69.67L78.81 69.67L78.81 72.49L82.61 72.49L82.61 73.61L78.81 73.61L78.81 76.84L83.07 76.84M93.60 78L88.08 78L88.08 68.51L89.37 68.51L89.37 76.83L93.60 76.83M109.13 78L107.84 78L107.84 68.51L110.92 68.51Q111.84 68.51 112.50 68.86Q113.16 69.21 113.53 69.84Q113.89 70.47 113.89 71.34Q113.89 72.20 113.53 72.83Q113.16 73.46 112.49 73.81Q111.82 74.17 110.92 74.17L109.13 74.17L109.13 78M109.13 69.65L109.13 73.02L110.92 73.02Q111.68 73.02 112.12 72.56Q112.56 72.10 112.56 71.34Q112.56 70.58 112.12 70.12Q111.68 69.65 110.92 69.65M123.63 78L118.10 78L118.10 68.51L123.63 68.51L123.63 69.67L119.38 69.67L119.38 72.49L123.17 72.49L123.17 73.61L119.38 73.61L119.38 76.84L123.63 76.84M130.98 78.13Q129.67 78.13 128.90 77.40Q128.12 76.66 128.12 75.37L128.12 71.12Q128.12 69.85 128.90 69.11Q129.67 68.38 130.98 68.38Q132.28 68.38 133.06 69.12Q133.83 69.86 133.83 71.12L132.54 71.12Q132.54 70.36 132.13 69.94Q131.71 69.52 130.98 69.52Q130.24 69.52 129.83 69.94Q129.41 70.36 129.41 71.12L129.41 75.37Q129.41 76.15 129.83 76.57Q130.24 76.99 130.98 76.99Q131.71 76.99 132.13 76.57Q132.54 76.15 132.54 75.37L133.83 75.37Q133.83 76.65 133.06 77.39Q132.28 78.13 130.98 78.13M139.55 78L138.26 78L138.26 68.51L139.55 68.51L139.55 72.54L140.88 72.54L142.91 68.51L144.31 68.51L142.01 73.07L144.43 78L142.97 78L140.85 73.67L139.55 73.67M149.70 78L148.42 78L148.42 68.51L149.70 68.51L149.70 72.51L152.62 72.51L152.62 68.51L153.90 68.51L153.90 78L152.62 78L152.62 73.68L149.70 73.68M159.31 78L158 78L160.45 68.51L162.16 68.51L164.60 78L163.29 78L162.69 75.53L159.91 75.53L159.31 78M160.86 71.62L160.17 74.46L162.43 74.46L161.75 71.63Q161.56 70.85 161.44 70.30Q161.33 69.76 161.30 69.56Q161.27 69.76 161.16 70.30Q161.04 70.85 160.86 71.62M169.65 78L168.42 78L168.42 68.51L170.24 68.51L171.41 72.61L172.64 68.51L174.47 68.51L174.47 78L173.23 78L173.23 73.64Q173.23 72.96 173.26 72.12Q173.29 71.28 173.33 70.44Q173.38 69.60 173.43 68.93L171.95 73.79L170.85 73.79L169.42 69.04Q169.54 69.99 169.59 71.16Q169.65 72.32 169.65 73.64M191.72 74.63Q191.23 74.63 190.92 74.33Q190.61 74.03 190.61 73.57Q190.61 73.07 190.92 72.76Q191.23 72.45 191.72 72.45Q192.21 72.45 192.52 72.76Q192.82 73.07 192.82 73.57Q192.82 74.03 192.52 74.33Q192.21 74.63 191.72 74.63M210.57 78L209.28 78L209.28 68.51L214.95 68.51L214.95 69.69L210.54 69.69L210.54 72.68L214.61 72.68L214.61 73.85L210.57 73.85M222.14 78.13Q220.80 78.13 220.08 77.39Q219.36 76.65 219.36 75.37L219.36 68.51L220.64 68.51L220.64 75.37Q220.64 76.13 221.02 76.56Q221.39 76.99 222.14 76.99Q222.88 76.99 223.26 76.56Q223.65 76.13 223.65 75.37L223.65 68.51L224.93 68.51L224.93 75.37Q224.93 76.66 224.21 77.40Q223.49 78.13 222.14 78.13M235.56 78L230.04 78L230.04 68.51L231.33 68.51L231.33 76.83L235.56 76.83M245.70 78L240.18 78L240.18 68.51L241.47 68.51L241.47 76.83L245.70 76.83M254.64 74.28L250.48 74.28L250.48 73.13L254.64 73.13M262.75 78.13Q261.35 78.13 260.52 77.40Q259.68 76.66 259.68 75.37L260.97 75.37Q260.97 76.13 261.45 76.56Q261.93 76.99 262.75 76.99Q263.53 76.99 263.99 76.55Q264.45 76.11 264.45 75.39Q264.45 74.84 264.16 74.43Q263.86 74.02 263.31 73.88L261.91 73.50Q260.98 73.24 260.44 72.56Q259.90 71.88 259.90 70.94Q259.90 70.17 260.25 69.60Q260.59 69.02 261.22 68.70Q261.84 68.38 262.66 68.38Q263.49 68.38 264.12 68.70Q264.75 69.02 265.10 69.59Q265.46 70.16 265.46 70.91L264.18 70.91Q264.18 70.29 263.76 69.90Q263.34 69.51 262.66 69.51Q261.98 69.51 261.58 69.90Q261.17 70.29 261.17 70.91Q261.17 71.42 261.44 71.77Q261.71 72.11 262.21 72.25L263.65 72.64Q264.62 72.90 265.17 73.64Q265.72 74.37 265.72 75.39Q265.72 76.22 265.35 76.84Q264.99 77.45 264.32 77.79Q263.65 78.13 262.75 78.13M273.49 78L272.20 78L272.20 69.68L269.63 69.68L269.63 68.51L276.05 68.51L276.05 69.68L273.49 69.68M280.99 78L279.68 78L282.13 68.51L283.84 68.51L286.28 78L284.97 78L284.37 75.53L281.59 75.53L280.99 78M282.54 71.62L281.85 74.46L284.11 74.46L283.43 71.63Q283.24 70.85 283.12 70.30Q283.01 69.76 282.98 69.56Q282.95 69.76 282.84 70.30Q282.72 70.85 282.54 71.62M293.22 78.13Q291.91 78.13 291.14 77.40Q290.36 76.66 290.36 75.37L290.36 71.12Q290.36 69.85 291.14 69.11Q291.91 68.38 293.22 68.38Q294.52 68.38 295.30 69.12Q296.07 69.86 296.07 71.12L294.78 71.12Q294.78 70.36 294.37 69.94Q293.95 69.52 293.22 69.52Q292.48 69.52 292.07 69.94Q291.65 70.36 291.65 71.12L291.65 75.37Q291.65 76.15 292.07 76.57Q292.48 76.99 293.22 76.99Q293.95 76.99 294.37 76.57Q294.78 76.15 294.78 75.37L296.07 75.37Q296.07 76.65 295.30 77.39Q294.52 78.13 293.22 78.13M301.79 78L300.50 78L300.50 68.51L301.79 68.51L301.79 72.54L303.12 72.54L305.14 68.51L306.55 68.51L304.25 73.07L306.67 78L305.21 78L303.09 73.67L301.79 73.67M323.54 74.63Q323.05 74.63 322.74 74.33Q322.43 74.03 322.43 73.57Q322.43 73.07 322.74 72.76Q323.05 72.45 323.54 72.45Q324.03 72.45 324.34 72.76Q324.64 73.07 324.64 73.57Q324.64 74.03 324.34 74.33Q324.03 74.63 323.54 74.63M341.83 78L340.52 78L342.97 68.51L344.68 68.51L347.12 78L345.81 78L345.21 75.53L342.43 75.53L341.83 78M343.38 71.62L342.69 74.46L344.95 74.46L344.27 71.63Q344.08 70.85 343.96 70.30Q343.85 69.76 343.82 69.56Q343.79 69.76 343.68 70.30Q343.56 70.85 343.38 71.62M356.55 78L351.37 78L351.37 76.83L353.31 76.83L353.31 69.68L351.37 69.68L351.37 68.51L356.55 68.51L356.55 69.68L354.61 69.68L354.61 76.83L356.55 76.83M374.24 74.63Q373.75 74.63 373.44 74.33Q373.13 74.03 373.13 73.57Q373.13 73.07 373.44 72.76Q373.75 72.45 374.24 72.45Q374.73 72.45 375.04 72.76Q375.34 73.07 375.34 73.57Q375.34 74.03 375.04 74.33Q374.73 74.63 374.24 74.63M397.80 78L392.28 78L392.28 68.51L393.57 68.51L393.57 76.83L397.80 76.83M402.67 78L401.36 78L403.81 68.51L405.52 68.51L407.96 78L406.65 78L406.05 75.53L403.27 75.53L402.67 78M404.22 71.62L403.53 74.46L405.79 74.46L405.11 71.63Q404.92 70.85 404.80 70.30Q404.69 69.76 404.66 69.56Q404.63 69.76 404.52 70.30Q404.40 70.85 404.22 71.62M413.33 78L412.06 78L412.06 68.51L414.99 68.51Q415.87 68.51 416.52 68.85Q417.17 69.20 417.53 69.82Q417.89 70.43 417.89 71.27Q417.89 72.23 417.41 72.92Q416.92 73.61 416.11 73.89L418.02 78L416.61 78L414.80 74.03L413.33 74.03L413.33 78M413.33 69.65L413.33 72.89L414.99 72.89Q415.72 72.89 416.15 72.45Q416.57 72.01 416.57 71.28Q416.57 70.54 416.14 70.10Q415.71 69.65 414.99 69.65M422.95 78L421.64 78L424.09 68.51L425.80 68.51L428.24 78L426.93 78L426.33 75.53L423.55 75.53L422.95 78M424.50 71.62L423.81 74.46L426.07 74.46L425.39 71.63Q425.20 70.85 425.08 70.30Q424.97 69.76 424.94 69.56Q424.91 69.76 424.80 70.30Q424.68 70.85 424.50 71.62M433.29 78L432.06 78L432.06 68.51L433.88 68.51L435.05 72.61L436.28 68.51L438.11 68.51L438.11 78L436.87 78L436.87 73.64Q436.87 72.96 436.90 72.12Q436.93 71.28 436.97 70.44Q437.02 69.60 437.07 68.93L435.59 73.79L434.49 73.79L433.06 69.04Q433.18 69.99 433.23 71.16Q433.29 72.32 433.29 73.64M447.81 78L442.63 78L442.63 76.83L444.57 76.83L444.57 69.68L442.63 69.68L442.63 68.51L447.81 68.51L447.81 69.68L445.87 69.68L445.87 76.83L447.81 76.83M458.25 78L452.72 78L452.72 68.51L458.25 68.51L458.25 69.67L453.99 69.67L453.99 72.49L457.79 72.49L457.79 73.61L453.99 73.61L453.99 76.84L458.25 76.84M465.56 80.08L464.26 80.08L464.97 76.10L466.49 76.10M484.77 78L483.22 78L482.13 68.51L483.27 68.51L483.97 75.43Q484.01 75.84 484.04 76.32Q484.08 76.79 484.09 77.09Q484.12 76.79 484.15 76.32Q484.19 75.84 484.26 75.43L485.17 68.51L486.46 68.51L487.30 75.43Q487.34 75.84 487.39 76.32Q487.44 76.79 487.48 77.09Q487.50 76.79 487.53 76.32Q487.57 75.84 487.61 75.43L488.33 68.51L489.45 68.51L488.31 78L486.75 78L485.94 70.98Q485.88 70.55 485.85 70.10Q485.82 69.65 485.81 69.38Q485.77 69.65 485.74 70.10Q485.71 70.55 485.66 70.98M496.57 78L495.28 78L495.28 74.48L492.44 68.51L493.80 68.51L495.56 72.25Q495.71 72.59 495.81 72.86Q495.91 73.14 495.93 73.25Q495.97 73.14 496.07 72.86Q496.17 72.59 496.34 72.25L498.08 68.51L499.40 68.51L496.57 74.48"/>
  <path fill="#141210" d="M62.44 178L62.44 113.60L83.14 113.60L83.14 178M156.74 172.02L141.19 151.69L137.88 178L116.26 178L128.22 110.38L156.74 145.16L185.26 110.38L197.22 178L175.60 178L172.29 151.69M270.36 178L247.36 178L242.76 169.72L225.19 169.72L220.68 178L197.68 178L234.02 109L270.36 178M239.54 155.18L234.02 142.86L228.50 155.18M274.50 178L274.50 113.60L295.66 113.60L295.66 137.43L315.44 113.60L338.99 113.60L313.88 143.78L340.37 178L315.90 178L295.66 151.87L295.66 178M344.51 178L344.51 113.60L390.97 113.60L390.97 129.70L363.83 129.70L363.83 137.06L389.13 137.06L389.13 152.70L363.83 152.70L363.83 161.90L390.97 161.90L390.97 178"/>
  <path fill="#141210" d="M58.76 253.46L72.38 243.53Q75.14 248.40 79.14 251.12Q83.14 253.83 87.46 253.83Q89.86 253.83 91.51 252.87Q93.17 251.90 93.17 249.78Q93.17 248.50 92.29 247.58Q91.42 246.66 88.84 245.46Q86.27 244.26 81.02 242.24Q78.72 241.32 75.73 239.76Q72.74 238.19 70.03 235.71Q67.32 233.22 65.52 229.64Q63.73 226.05 63.73 221.17Q63.73 214.82 67.13 210.50Q70.54 206.18 76.15 203.97Q81.76 201.76 88.48 201.76Q95.74 201.76 100.94 203.97Q106.14 206.18 109.50 209.49Q112.86 212.80 114.60 216.11L99.61 224.39Q97.31 220.99 94.55 219.56Q91.79 218.14 89.12 218.14Q87 218.14 85.67 218.87Q84.34 219.61 84.34 221.17Q84.34 223.10 86.22 224.35Q88.11 225.59 91.24 226.65Q94.36 227.70 98.14 229.08Q105.86 231.75 110.23 236.72Q114.60 241.69 114.60 249.14Q114.60 254.48 112.40 258.57Q110.19 262.66 106.46 265.33Q102.74 268 98.04 269.38Q93.35 270.76 88.38 270.76Q81.48 270.76 75.55 268.51Q69.62 266.25 65.29 262.30Q60.97 258.34 58.76 253.46M118.74 235.80Q118.74 228.07 121.50 221.82Q124.26 215.56 129.14 211.05Q134.02 206.54 140.55 204.15Q147.08 201.76 154.62 201.76Q164.93 201.76 173.02 205.99Q181.12 210.22 185.81 217.86Q190.50 225.50 190.50 235.80Q190.50 243.53 187.88 249.92Q185.26 256.32 180.48 261.01Q175.69 265.70 169.11 268.23Q162.54 270.76 154.62 270.76Q146.71 270.76 140.13 268.23Q133.56 265.70 128.77 261.01Q123.99 256.32 121.37 249.92Q118.74 243.53 118.74 235.80M140.18 235.80Q140.18 242.88 144.04 247.25Q147.91 251.62 154.62 251.62Q161.43 251.62 165.25 247.25Q169.07 242.88 169.07 235.80Q169.07 228.72 165.39 224.35Q161.71 219.98 154.62 219.98Q147.91 219.98 144.04 224.35Q140.18 228.72 140.18 235.80M197.86 268L197.86 203.60L240.64 203.60L240.64 220.62L217.18 220.62L217.18 229.82L239.72 229.82L239.72 245.46L217.18 245.46L217.18 268M259.04 221.54L240.64 221.54L240.64 203.60L297.68 203.60L297.68 221.54L279.28 221.54L279.28 268L259.04 268M349.66 200.38L366.41 233.87L376.34 203.60L400.72 203.60L371.28 272.14L349.66 240.12L328.04 272.14L298.60 203.60L322.98 203.60L332.92 233.87M461.90 268L438.90 268L434.30 259.72L416.73 259.72L412.22 268L389.22 268L425.56 199L461.90 268M431.08 245.18L425.56 232.86L420.04 245.18M466.04 268L466.04 203.60L493.18 203.60Q502.66 203.60 508.59 206.45Q514.53 209.30 517.33 214.27Q520.14 219.24 520.14 225.68Q520.14 232.03 517.33 237.04Q514.53 242.06 508.55 244.91L524 268L500.54 268L489.04 247.76L486.28 247.76L486.28 268L466.04 268M491.34 220.62L486.28 220.62L486.28 232.58L491.34 232.58Q495.12 232.58 497.05 231.02Q498.98 229.45 498.98 226.60Q498.98 223.75 497.05 222.18Q495.12 220.62 491.34 220.62M528.60 268L528.60 203.60L575.06 203.60L575.06 219.70L547.92 219.70L547.92 227.06L573.22 227.06L573.22 242.70L547.92 242.70L547.92 251.90L575.06 251.90L575.06 268"/>
  <path fill="#141210" d="M74.40 311.54L56 311.54L56 293.60L113.04 293.60L113.04 311.54L94.64 311.54L94.64 358L74.40 358M117.64 358L117.64 293.60L137.88 293.60L137.88 315.68L160.88 315.68L160.88 293.60L181.12 293.60L181.12 358L160.88 358L160.88 333.62L137.88 333.62L137.88 358M257.94 358L234.94 358L230.34 349.72L212.77 349.72L208.26 358L185.26 358L221.60 289L257.94 358M227.12 335.18L221.60 322.86L216.08 335.18M267.60 311.54L249.20 311.54L249.20 293.60L306.24 293.60L306.24 311.54L287.84 311.54L287.84 358L267.60 358M336.60 358L336.60 293.60L356.84 293.60L356.84 315.68L379.84 315.68L379.84 293.60L400.08 293.60L400.08 358L379.84 358L379.84 333.62L356.84 333.62L356.84 358M411.12 358L411.12 293.60L457.58 293.60L457.58 309.70L430.44 309.70L430.44 317.06L455.74 317.06L455.74 332.70L430.44 332.70L430.44 341.90L457.58 341.90L457.58 358M467.70 358L467.70 293.60L487.94 293.60L487.94 340.98L514.16 340.98L514.16 358M518.76 358L518.76 293.60L544.06 293.60Q558.23 293.60 564.62 299.49Q571.02 305.38 571.02 315.68Q571.02 325.98 564.62 331.87Q558.23 337.76 544.06 337.76L539 337.76L539 358L518.76 358M544.06 309.70L539 309.70L539 321.66L544.06 321.66Q547.83 321.66 549.76 320.10Q551.70 318.53 551.70 315.68Q551.70 312.83 549.76 311.26Q547.83 309.70 544.06 309.70M574.70 343.46L588.31 333.53Q591.07 338.40 595.07 341.12Q599.08 343.83 603.40 343.83Q605.79 343.83 607.45 342.87Q609.10 341.90 609.10 339.78Q609.10 338.50 608.23 337.58Q607.36 336.66 604.78 335.46Q602.20 334.26 596.96 332.24Q594.66 331.32 591.67 329.76Q588.68 328.19 585.97 325.71Q583.25 323.22 581.46 319.64Q579.66 316.05 579.66 311.17Q579.66 304.82 583.07 300.50Q586.47 296.18 592.08 293.97Q597.70 291.76 604.41 291.76Q611.68 291.76 616.88 293.97Q622.08 296.18 625.43 299.49Q628.79 302.80 630.54 306.11L615.54 314.39Q613.24 310.99 610.48 309.56Q607.72 308.14 605.06 308.14Q602.94 308.14 601.61 308.87Q600.27 309.61 600.27 311.17Q600.27 313.10 602.16 314.35Q604.04 315.59 607.17 316.65Q610.30 317.70 614.07 319.08Q621.80 321.75 626.17 326.72Q630.54 331.69 630.54 339.14Q630.54 344.48 628.33 348.57Q626.12 352.66 622.40 355.33Q618.67 358 613.98 359.38Q609.29 360.76 604.32 360.76Q597.42 360.76 591.49 358.51Q585.55 356.25 581.23 352.30Q576.90 348.34 574.70 343.46"/>
  <path fill="#e1352a" d="M62.44 448L62.44 383.60L87.74 383.60Q101.91 383.60 108.30 389.49Q114.70 395.38 114.70 405.68Q114.70 415.98 108.30 421.87Q101.91 427.76 87.74 427.76L82.68 427.76L82.68 448L62.44 448M87.74 399.70L82.68 399.70L82.68 411.66L87.74 411.66Q91.51 411.66 93.44 410.10Q95.38 408.53 95.38 405.68Q95.38 402.83 93.44 401.26Q91.51 399.70 87.74 399.70M122.06 448L122.06 383.60L168.52 383.60L168.52 399.70L141.38 399.70L141.38 407.06L166.68 407.06L166.68 422.70L141.38 422.70L141.38 431.90L168.52 431.90L168.52 448M174.96 415.80Q174.96 408.07 177.72 401.82Q180.48 395.56 185.35 391.05Q190.23 386.54 196.76 384.15Q203.29 381.76 210.84 381.76Q221.14 381.76 229.24 385.99Q237.33 390.22 242.02 397.86Q246.72 405.50 246.72 415.80Q246.72 423.53 244.09 429.92Q241.47 436.32 236.69 441.01Q231.90 445.70 225.33 448.23Q218.75 450.76 210.84 450.76Q202.92 450.76 196.35 448.23Q189.77 445.70 184.98 441.01Q180.20 436.32 177.58 429.92Q174.96 423.53 174.96 415.80M196.39 415.80Q196.39 422.88 200.26 427.25Q204.12 431.62 210.84 431.62Q217.64 431.62 221.46 427.25Q225.28 422.88 225.28 415.80Q225.28 408.72 221.60 404.35Q217.92 399.98 210.84 399.98Q204.12 399.98 200.26 404.35Q196.39 408.72 196.39 415.80M254.08 448L254.08 383.60L279.38 383.60Q293.54 383.60 299.94 389.49Q306.33 395.38 306.33 405.68Q306.33 415.98 299.94 421.87Q293.54 427.76 279.38 427.76L274.32 427.76L274.32 448L254.08 448M279.38 399.70L274.32 399.70L274.32 411.66L279.38 411.66Q283.15 411.66 285.08 410.10Q287.01 408.53 287.01 405.68Q287.01 402.83 285.08 401.26Q283.15 399.70 279.38 399.70M313.69 448L313.69 383.60L333.93 383.60L333.93 430.98L360.15 430.98L360.15 448M364.75 448L364.75 383.60L411.21 383.60L411.21 399.70L384.07 399.70L384.07 407.06L409.37 407.06L409.37 422.70L384.07 422.70L384.07 431.90L411.21 431.90L411.21 448M419.49 440.18Q419.49 435.86 422.53 432.73Q425.56 429.60 430.35 429.60Q435.22 429.60 438.21 432.73Q441.20 435.86 441.20 440.18Q441.20 444.50 438.21 447.63Q435.22 450.76 430.35 450.76Q425.56 450.76 422.53 447.63Q419.49 444.50 419.49 440.18"/>
</svg>
